<?xml version="1.0" standalone="no"?><!DOCTYPE svg PUBLIC "-//W3C//DTD SVG 1.1//EN" "http://www.w3.org/Graphics/SVG/1.1/DTD/svg11.dtd"><svg t="1693986310053" class="icon" viewBox="0 0 1024 1024" version="1.1" xmlns="http://www.w3.org/2000/svg" p-id="4173" xmlns:xlink="http://www.w3.org/1999/xlink" width="200" height="200"><path d="M651.353043 550.479503H378.752795L240.862609 364.315031c-3.688944-4.897391-5.660621-10.876025-5.660621-17.045466v-60.040745c0-15.773416 12.847702-28.621118 28.621118-28.621118h502.459627c15.773416 0 28.621118 12.847702 28.621118 28.621118v59.977143c0 6.105839-1.971677 12.084472-5.660621 17.045466l-137.890187 186.228074zM378.752795 598.308571v398.024348c0 15.328199 12.402484 27.667081 27.667081 27.667081h217.266087c15.328199 0 27.667081-12.402484 27.66708-27.667081V598.308571H378.752795z m136.300124 176.942112c-14.564969 0-26.331429-11.76646-26.331428-26.331428v-81.283975c0-14.564969 11.76646-26.331429 26.331428-26.331429 14.564969 0 26.331429 11.76646 26.331429 26.331429v81.283975c0 14.564969-11.76646 26.331429-26.331429 26.331428zM512 222.608696c-17.554286 0-31.801242-14.246957-31.801242-31.801243V31.801242c0-17.554286 14.246957-31.801242 31.801242-31.801242s31.801242 14.246957 31.801242 31.801242v159.006211c0 17.554286-14.246957 31.801242-31.801242 31.801243zM280.932174 205.881242c-9.47677 0-18.889938-4.197764-25.122981-12.275279L158.242981 67.991056a31.864845 31.864845 0 0 1 5.597019-44.648944 31.864845 31.864845 0 0 1 44.648944 5.597018l97.502609 125.551305a31.864845 31.864845 0 0 1-5.597019 44.648944c-5.787826 4.579379-12.656894 6.741863-19.46236 6.741863zM723.987081 205.881242c-6.805466 0-13.674534-2.162484-19.462361-6.678261a31.794882 31.794882 0 0 1-5.597018-44.648944l97.566211-125.551304a31.794882 31.794882 0 0 1 44.648944-5.597019 31.794882 31.794882 0 0 1 5.597019 44.648944l-97.566211 125.551305c-6.360248 8.077516-15.709814 12.27528-25.186584 12.275279z" fill="#666666" p-id="4174"></path></svg>